# xmcd
#
# Track frame offsets:
# 150
# 15580
# 28720
# 44137
# 58525
# 72900
# 88065
# 103927
# 118465
# 133827
# 146012
# 159922
# 174345
# 188032
# 204182
#
# Disc length: 2969 seconds
#
#
# Revision: 0
# Processed by: cddbd v1.5.1PL2 Copyright (c) Steve Scherf et al.
# Submitted via: FreeRIP 2.945 
#
DISCID=d80b970f
DTITLE=Banda Legal - 
DYEAR=1900
DGENRE=
TTITLE0=Pede pra ela voltar
TTITLE1=Misturadão
TTITLE2=Festerê
TTITLE3=Cheiro dela
TTITLE4=Apartamento vazio
TTITLE5=Ela mentiu pra você
TTITLE6=Talvez amanhã
TTITLE7=Agito legal
TTITLE8=Fazer por fazer
TTITLE9=Fora da casinha
TTITLE10=300 dias do meu calendário
TTITLE11=Eu topo tudo de novo
TTITLE12=Bebo pra esquecer
TTITLE13=Amigo do peito
TTITLE14=Tô caindo fora (ao vivo)
EXTD=
EXTT0=
EXTT1=
EXTT2=
EXTT3=
EXTT4=
EXTT5=
EXTT6=
EXTT7=
EXTT8=
EXTT9=
EXTT10=
EXTT11=
EXTT12=
EXTT13=
EXTT14=
PLAYORDER=
